# xmcd CD database file
#
# Track frame offsets:
#	182
#	23962
#	36625
#	52990
#	67500
#	83015
#	101645
#	129125
#	149490
#	173040
#	189597
#	207720
#	224095
#	243990
#	265667
#	284455
#	303767
#	321692
#
# Disc length: 4479 seconds
#
# Revision: 15
# Processed by: cddbd v1.5PL3 Copyright (c) Steve Scherf et al.
# Submitted via: CDex 1.51
#
DISCID=0f117d12
DTITLE=デビッド・ボウイ - チェンジスボウイ
DYEAR=1990
DGENRE=Rock
TTITLE0=スペイス・オディティ
TTITLE1=ジョン、アイム・オンリー・ダンシング
TTITLE2=チェンジス
TTITLE3=ジギー・スターダスト
TTITLE4=サフラゲット・シティ
TTITLE5=ジーン・ジニー
TTITLE6=ダイアモンドの犬
TTITLE7=愛しき反抗
TTITLE8=ヤング・アメリカン
TTITLE9=フェイム’90
TTITLE10=ゴールデン・イヤーズ
TTITLE11=ヒーローズ
TTITLE12=アッシェズ・トゥ・アッシェズ
TTITLE13=ファッション
TTITLE14=レッツ・ダンス
TTITLE15=チャイナ・ガール
TTITLE16=モダン・ラヴ
TTITLE17=ブルー・ジーン
EXTD=LABEL =Rykodisc\nID =RCD20171\nUPC =none\nCOPYRIGHT =1990 YEAR: 1990
EXTT0=
EXTT1=
EXTT2=
EXTT3=
EXTT4=
EXTT5=
EXTT6=
EXTT7=
EXTT8=
EXTT9=
EXTT10=
EXTT11=
EXTT12=
EXTT13=
EXTT14=
EXTT15=
EXTT16=
EXTT17=
PLAYORDER=
